<?xml version="1.0" encoding="UTF-8"?>
<svg xmlns="http://www.w3.org/2000/svg" xmlns:xlink="http://www.w3.org/1999/xlink" width="60pt" height="60pt" viewBox="0 0 60 60" version="1.1">
<g id="surface5207720">
<path style=" stroke:none;fill-rule:nonzero;fill:rgb(20%,20%,20%);fill-opacity:1;" d="M 36.796875 17.945312 C 35.132812 17.945312 33.511719 18.269531 32.074219 18.824219 C 31.519531 19.039062 31.375 19.261719 31.367188 19.695312 L 31.367188 43.117188 C 31.375 43.570312 31.71875 43.917969 32.160156 43.964844 C 32.179688 43.96875 52.617188 43.964844 52.617188 43.964844 C 56.691406 43.964844 59.996094 40.695312 59.996094 36.621094 C 60 32.542969 56.695312 29.238281 52.621094 29.238281 C 51.609375 29.238281 50.644531 29.441406 49.765625 29.8125 C 49.179688 23.164062 43.597656 17.945312 36.796875 17.945312 Z M 29.859375 19.671875 C 29.664062 19.671875 29.484375 19.742188 29.347656 19.859375 C 29.167969 20.007812 29.050781 20.230469 29.046875 20.480469 L 29.046875 20.566406 L 28.714844 37.109375 L 28.882812 40.164062 L 29.046875 43.140625 C 29.054688 43.582031 29.417969 43.945312 29.863281 43.945312 C 30.300781 43.945312 30.664062 43.585938 30.675781 43.144531 L 30.675781 43.136719 L 31.035156 37.109375 L 30.675781 20.484375 C 30.667969 20.1875 30.507812 19.929688 30.273438 19.789062 C 30.152344 19.714844 30.007812 19.671875 29.859375 19.671875 Z M 27.339844 21.105469 C 27.191406 21.105469 27.050781 21.148438 26.929688 21.226562 C 26.722656 21.359375 26.582031 21.597656 26.578125 21.863281 L 26.578125 22.007812 L 26.292969 37.101562 C 26.292969 37.113281 26.578125 43.230469 26.578125 43.230469 C 26.578125 43.242188 26.578125 43.246094 26.578125 43.257812 C 26.589844 43.429688 26.652344 43.582031 26.757812 43.707031 C 26.898438 43.875 27.109375 43.984375 27.34375 43.984375 C 27.550781 43.984375 27.738281 43.902344 27.875 43.761719 C 28.011719 43.625 28.097656 43.433594 28.101562 43.222656 L 28.132812 42.617188 L 28.421875 37.105469 L 28.101562 21.859375 C 28.09375 21.601562 27.960938 21.371094 27.761719 21.234375 C 27.640625 21.152344 27.492188 21.105469 27.339844 21.105469 Z M 19.804688 22.855469 C 19.472656 22.855469 19.207031 23.121094 19.195312 23.460938 L 18.816406 37.101562 L 19.195312 43.363281 C 19.207031 43.699219 19.472656 43.964844 19.804688 43.964844 C 20.132812 43.964844 20.398438 43.699219 20.410156 43.359375 L 20.839844 37.101562 L 20.410156 23.460938 C 20.398438 23.121094 20.132812 22.855469 19.804688 22.855469 Z M 22.296875 23.152344 C 21.933594 23.152344 21.648438 23.441406 21.636719 23.808594 L 21.289062 37.105469 L 21.636719 43.304688 C 21.644531 43.667969 21.933594 43.957031 22.292969 43.957031 C 22.652344 43.957031 22.941406 43.667969 22.953125 43.300781 L 23.34375 37.101562 L 22.953125 23.804688 C 22.945312 23.4375 22.65625 23.152344 22.296875 23.152344 Z M 17.328125 23.351562 C 17.027344 23.351562 16.785156 23.59375 16.773438 23.902344 L 16.367188 37.101562 L 16.773438 43.402344 C 16.785156 43.710938 17.027344 43.953125 17.328125 43.953125 C 17.625 43.953125 17.871094 43.714844 17.886719 43.40625 L 17.886719 43.402344 L 18.347656 37.105469 L 17.886719 23.902344 C 17.875 23.59375 17.628906 23.351562 17.328125 23.351562 Z M 24.804688 23.585938 C 24.414062 23.585938 24.105469 23.898438 24.097656 24.292969 L 23.78125 37.101562 L 24.097656 43.265625 C 24.105469 43.65625 24.414062 43.96875 24.804688 43.96875 C 25.191406 43.96875 25.503906 43.660156 25.515625 43.269531 L 25.515625 43.261719 L 25.871094 37.105469 L 25.515625 24.292969 C 25.507812 23.898438 25.195312 23.585938 24.804688 23.585938 Z M 14.839844 24.453125 C 14.566406 24.453125 14.34375 24.671875 14.332031 24.953125 L 13.894531 37.132812 L 14.332031 43.503906 C 14.34375 43.78125 14.566406 44 14.839844 44 C 15.109375 44 15.332031 43.777344 15.34375 43.5 L 15.839844 37.136719 L 15.34375 24.953125 C 15.332031 24.671875 15.109375 24.453125 14.839844 24.453125 Z M 12.441406 26.734375 C 12.199219 26.734375 12 26.929688 11.988281 27.183594 L 11.519531 37.097656 L 11.988281 43.503906 C 12.003906 43.753906 12.199219 43.953125 12.441406 43.953125 C 12.679688 43.953125 12.878906 43.757812 12.894531 43.503906 L 13.425781 37.097656 L 12.894531 27.183594 C 12.878906 26.933594 12.679688 26.734375 12.441406 26.734375 Z M 7.632812 30.183594 C 7.445312 30.183594 7.296875 30.328125 7.28125 30.527344 L 6.753906 37.097656 L 7.28125 43.449219 C 7.296875 43.644531 7.445312 43.796875 7.632812 43.796875 C 7.816406 43.796875 7.964844 43.648438 7.980469 43.449219 L 8.585938 37.097656 L 7.980469 30.527344 C 7.964844 30.332031 7.816406 30.183594 7.632812 30.183594 Z M 5.257812 30.40625 C 5.097656 30.40625 4.972656 30.527344 4.957031 30.699219 L 4.394531 37.09375 L 4.957031 43.253906 C 4.972656 43.425781 5.101562 43.546875 5.257812 43.546875 C 5.414062 43.546875 5.535156 43.425781 5.554688 43.253906 L 6.191406 37.09375 L 5.554688 30.699219 C 5.535156 30.53125 5.414062 30.40625 5.257812 30.40625 Z M 10.027344 30.605469 C 9.8125 30.605469 9.636719 30.777344 9.621094 31.003906 L 9.125 37.097656 L 9.621094 43.503906 C 9.636719 43.726562 9.8125 43.898438 10.027344 43.898438 C 10.242188 43.898438 10.414062 43.730469 10.429688 43.503906 L 10.996094 37.097656 L 10.429688 31 C 10.414062 30.773438 10.242188 30.605469 10.027344 30.605469 Z M 2.894531 31.464844 C 2.765625 31.464844 2.664062 31.566406 2.644531 31.707031 L 2.054688 37.09375 L 2.644531 42.363281 C 2.660156 42.503906 2.765625 42.605469 2.894531 42.605469 C 3.019531 42.605469 3.121094 42.503906 3.144531 42.363281 L 3.816406 37.09375 L 3.144531 31.707031 C 3.125 31.566406 3.023438 31.464844 2.894531 31.464844 Z M 0.679688 33.527344 C 0.554688 33.527344 0.453125 33.625 0.4375 33.761719 L 0 37.09375 L 0.4375 40.371094 C 0.453125 40.507812 0.554688 40.605469 0.679688 40.605469 C 0.800781 40.605469 0.898438 40.507812 0.917969 40.371094 L 1.4375 37.09375 L 0.917969 33.761719 C 0.898438 33.625 0.800781 33.527344 0.679688 33.527344 Z M 0.679688 33.527344 "/>
</g>
</svg>
